<svg width="320" height="400" viewBox="0 0 320 400" fill="none" xmlns="http://www.w3.org/2000/svg">
<g opacity="0.2" clip-path="url(#clip0_52_96)">
<path d="M187.763 74.4721C178.745 65.4543 178.745 50.781 187.763 41.7632C196.781 32.7453 211.454 32.7453 220.471 41.7632C228.122 49.4136 229.281 60.7917 223.951 69.6769C223.951 69.6769 223.568 70.3192 224.085 70.8359C227.035 73.7856 235.885 82.636 235.885 82.636C238.234 84.9845 238.793 88.2686 236.71 90.3518L236.351 90.71C234.268 92.7932 230.984 92.2343 228.636 89.8856C228.636 89.8856 219.804 81.0539 216.86 78.1102C216.318 77.5684 215.676 77.9512 215.676 77.9512C206.791 83.2811 195.413 82.1226 187.763 74.4721ZM216.201 70.202C222.865 63.5387 222.865 52.6969 216.201 46.0337C209.538 39.3706 198.696 39.3704 192.033 46.0337C185.37 52.6968 185.37 63.5387 192.033 70.202C198.696 76.8649 209.538 76.8649 216.201 70.202Z" fill="#84B5FF"/>
<path d="M214.726 56.7453C215.036 56.7453 215.351 56.6843 215.655 56.556C216.869 56.0422 217.437 54.6415 216.923 53.4274C213.694 45.7963 204.859 42.2151 197.228 45.4443C196.014 45.958 195.446 47.3587 195.96 48.5728C196.474 49.7869 197.874 50.3545 199.089 49.8409C204.295 47.6378 210.324 50.0813 212.527 55.2877C212.912 56.1983 213.796 56.7453 214.726 56.7453Z" fill="#84B5FF"/>
</g>
<g opacity="0.2" clip-path="url(#clip1_52_96)">
<path d="M123.604 156.917H59.3959C58.5584 156.917 58 157.475 58 158.313V177.854C58 181.763 61.0709 184.833 64.9791 184.833H118.021C121.929 184.833 125 181.762 125 177.854V158.313C125 157.475 124.442 156.917 123.604 156.917ZM67.7709 168.083H78.9375C79.775 168.083 80.3334 168.642 80.3334 169.479C80.3334 170.317 79.775 170.875 78.9375 170.875H67.7709C66.9334 170.875 66.375 170.317 66.375 169.479C66.375 168.642 66.9334 168.083 67.7709 168.083ZM87.3125 176.458H67.7709C66.9334 176.458 66.375 175.9 66.375 175.063C66.375 174.225 66.9334 173.667 67.7709 173.667H87.3125C88.15 173.667 88.7084 174.225 88.7084 175.063C88.7084 175.9 88.15 176.458 87.3125 176.458ZM111.042 176.458C109.925 176.458 109.088 176.179 108.25 175.621C107.412 176.179 106.575 176.458 105.458 176.458C102.387 176.458 99.875 173.946 99.875 170.875C99.875 167.804 102.387 165.292 105.458 165.292C106.575 165.292 107.412 165.571 108.25 166.129C109.088 165.571 109.925 165.292 111.042 165.292C114.113 165.292 116.625 167.804 116.625 170.875C116.625 173.946 114.113 176.458 111.042 176.458Z" fill="#84B5FF"/>
<path d="M118.021 140.167H64.9791C61.0709 140.167 58 143.238 58 147.146V149.938C58 150.775 58.5584 151.333 59.3959 151.333H123.604C124.442 151.333 125 150.775 125 149.938V147.146C125 143.238 121.929 140.167 118.021 140.167Z" fill="#84B5FF"/>
</g>
<g opacity="0.2" clip-path="url(#clip2_52_96)">
<path d="M240.602 213.668H205.667C204.802 213.668 204.044 213.096 203.809 212.266L196.075 185.195C195.908 184.611 196.022 183.984 196.388 183.499C196.755 183.016 197.325 182.73 197.933 182.73H245.065L246.448 176.511C246.644 175.625 247.43 174.996 248.336 174.996H260.066C261.135 174.996 262 175.861 262 176.93C262 177.999 261.135 178.863 260.066 178.863H249.888L242.905 210.284C244.96 211.177 246.402 213.222 246.402 215.602C246.402 218.801 243.8 221.403 240.602 221.403H205.667C204.598 221.403 203.734 220.538 203.734 219.469C203.734 218.401 204.598 217.536 205.667 217.536H240.602C241.667 217.536 242.535 216.669 242.535 215.602C242.535 214.535 241.667 213.668 240.602 213.668V213.668Z" fill="#84B5FF"/>
<path d="M242.535 227.204C242.535 230.403 239.933 233.005 236.734 233.005C233.535 233.005 230.933 230.403 230.933 227.204C230.933 224.005 233.535 221.403 236.734 221.403C239.933 221.403 242.535 224.005 242.535 227.204Z" fill="#84B5FF"/>
<path d="M215.336 227.204C215.336 230.403 212.733 233.005 209.535 233.005C206.336 233.005 203.734 230.403 203.734 227.204C203.734 224.005 206.336 221.403 209.535 221.403C212.733 221.403 215.336 224.005 215.336 227.204Z" fill="#84B5FF"/>
</g>
<g filter="url(#filter0_d_52_96)">
<path d="M194.654 61H125.346C120.185 61 116 65.1732 116 70.3237V185.379V211.628C116 216.819 120.229 220.952 125.346 220.952H194.654C199.814 220.952 204 216.78 204 211.628V96.5726V70.3237C204 65.1275 199.765 61 194.654 61Z" fill="#276ED8"/>
<path d="M199.471 73.707H120.533V208.244H199.471V73.707Z" fill="#F0F6FF"/>
<path d="M175.61 108.323L154.347 114.569L151.2 120.657L144.814 120.605L129.25 137.667L144.814 154.727L151.197 154.674L154.351 160.758L175.61 167.004L181.306 143.703L178.07 137.667L181.306 131.632L175.61 108.323ZM151.712 121.636L167.977 117.053L158.641 134.785H139.965L151.712 121.636ZM151.712 153.694L139.965 140.546H158.641L167.977 158.277L151.712 153.694ZM172.529 155.395L163.189 137.667L172.529 119.932L177.039 137.667L172.529 155.395Z" fill="#06B25F"/>
<path d="M176.276 69.4791H143.855C143.48 69.4791 143.176 69.1766 143.176 68.8014V68.4704C143.176 68.0966 143.479 67.7927 143.855 67.7927H176.276C176.65 67.7927 176.955 68.0952 176.955 68.4704V68.8014C176.953 69.1752 176.65 69.4791 176.276 69.4791Z" fill="white"/>
<path opacity="0.2" d="M199.471 200.287H120.533V208.245H199.471V200.287Z" fill="#84B5FF"/>
<path opacity="0.2" d="M199.471 73.707H120.533V80.8463H199.471V73.707Z" fill="#84B5FF"/>
</g>
<defs>
<filter id="filter0_d_52_96" x="104" y="53" width="112" height="183.952" filterUnits="userSpaceOnUse" color-interpolation-filters="sRGB">
<feFlood flood-opacity="0" result="BackgroundImageFix"/>
<feColorMatrix in="SourceAlpha" type="matrix" values="0 0 0 0 0 0 0 0 0 0 0 0 0 0 0 0 0 0 127 0" result="hardAlpha"/>
<feOffset dy="4"/>
<feGaussianBlur stdDeviation="6"/>
<feColorMatrix type="matrix" values="0 0 0 0 0.160784 0 0 0 0 0.0941176 0 0 0 0 0.435294 0 0 0 0.25 0"/>
<feBlend mode="normal" in2="BackgroundImageFix" result="effect1_dropShadow_52_96"/>
<feBlend mode="normal" in="SourceGraphic" in2="effect1_dropShadow_52_96" result="shape"/>
</filter>
<clipPath id="clip0_52_96">
<rect width="57" height="57" fill="white" transform="matrix(-1 0 0 1 238 35)"/>
</clipPath>
<clipPath id="clip1_52_96">
<rect width="67" height="67" fill="white" transform="translate(58 129)"/>
</clipPath>
<clipPath id="clip2_52_96">
<rect width="66" height="66" fill="white" transform="matrix(-1 0 0 1 262 171)"/>
</clipPath>
</defs>
</svg>
