<svg width="982" height="1517" viewBox="0 0 982 1517" fill="none" xmlns="http://www.w3.org/2000/svg">
<mask id="mask0_11675_6469" style="mask-type:alpha" maskUnits="userSpaceOnUse" x="0" y="0" width="982" height="1517">
<rect width="982" height="1517" fill="#C4C4C4"/>
</mask>
<g mask="url(#mask0_11675_6469)">
<path d="M-301.786 112.314C-460.778 130.785 -660.404 210.891 -660.404 210.891L-612.226 1495.42C-612.226 1495.42 -460.365 1547.74 -333.212 1543.89C-122.718 1537.52 23.6497 1444.86 234.229 1435.37C468.076 1424.83 583.185 1476.61 817.036 1466.35C957.704 1460.18 1173.44 1430.25 1173.44 1430.25L1109.14 -0.00847642C1109.14 -0.00847642 1043.63 24.271 994.336 34.3994C882.221 57.4335 805.521 33.0888 684.958 41.9948C467.775 58.038 369.695 119.557 151.908 130.885C-28.9285 140.291 -123.86 91.6442 -301.786 112.314Z" fill="#194484" fill-opacity="0.07"/>
<path d="M-86.1666 89.0985C-217.542 96.3805 -387.632 152.024 -387.632 152.024L-387.632 1481.36C-387.632 1481.36 -268.464 1531.56 -164.383 1534.66C7.91715 1539.79 135.692 1471.28 308.343 1473.87C500.071 1476.74 659.792 1496.6 851.497 1499.7C966.814 1501.57 1075.03 1515.82 1075.03 1515.82L1075.03 66.625C1075.03 66.625 1019.4 83.2446 978.265 89.0985C884.72 102.411 824.345 78.7541 725.184 80.1091C546.554 82.55 460.988 127.995 282.291 126.554C133.912 125.358 60.8547 80.9491 -86.1666 89.0985Z" fill="#194484"/>
<line opacity="0.2" x1="-2.58423" y1="1465.25" x2="982" y2="1465.25" stroke="#0D6EB7"/>
</g>
</svg>
