<svg width="1600" height="704" viewBox="0 0 1600 704" fill="none" xmlns="http://www.w3.org/2000/svg">
<mask id="mask0_413_4542" style="mask-type:alpha" maskUnits="userSpaceOnUse" x="-1" y="0" width="1601" height="707">
<rect x="-1" width="1601" height="707" fill="#C4C4C4"/>
</mask>
<g mask="url(#mask0_413_4542)">
<path d="M15.5695 244.763C-186.579 276.625 -440.391 344.811 -440.391 344.811L-379.136 1095.85C-379.136 1095.85 -186.053 1186.11 -24.3857 1179.46C243.245 1168.47 429.344 1008.63 697.084 992.259C994.407 974.078 1140.76 1063.4 1438.09 1045.7C1616.94 1035.06 1891.24 983.436 1891.24 983.436L1809.48 51.0003C1809.48 51.0003 1726.19 92.8836 1663.51 110.356C1520.96 150.091 1423.45 108.095 1270.16 123.458C994.021 151.133 869.322 257.256 592.419 276.798C362.496 293.024 241.792 209.105 15.5695 244.763Z" fill="#194484" fill-opacity="0.07"/>
<path d="M290.359 196.702C123.295 209.243 -93 305.069 -93 305.069L-93.0001 861.729C-93.0001 861.729 58.54 948.189 190.895 953.527C410.001 962.364 572.486 844.371 792.038 848.828C1035.85 853.778 1149.32 936.369 1393.11 941.714C1539.75 944.93 1767 921.073 1767 921.073L1767 98C1767 98 1696.25 186.621 1643.95 196.702C1524.99 219.629 1448.21 178.888 1322.11 181.221C1094.96 185.425 986.149 263.688 758.908 261.207C570.222 259.146 477.319 182.668 290.359 196.702Z" fill="#194484"/>
</g>
</svg>
