<svg width="24" height="24" viewBox="0 0 24 24" fill="none" xmlns="http://www.w3.org/2000/svg">
<path d="M6.62 11.0939C8.06 13.8259 10.38 16.0559 13.21 17.4557L15.41 15.3319C15.68 15.0713 16.08 14.9844 16.43 15.1002C17.55 15.4574 18.76 15.6505 20 15.6505C20.55 15.6505 21 16.0849 21 16.6158V19.985C21 20.5159 20.55 20.9503 20 20.9503C10.61 20.9503 3 13.6039 3 4.5391C3 4.00815 3.45 3.57373 4 3.57373H7.5C8.05 3.57373 8.5 4.00815 8.5 4.5391C8.5 5.74581 8.7 6.90425 9.07 7.98546C9.18 8.32334 9.1 8.69983 8.82 8.97014L6.62 11.0939Z" fill="#276ED8"/>
</svg>
