<svg width="24" height="24" viewBox="0 0 24 24" fill="none" xmlns="http://www.w3.org/2000/svg">
<path d="M21.4049 14.1699C22.8518 7.89402 17.1558 2.19271 10.4666 3.28717C6.83519 1.11191 2 3.57002 2 7.74054C2 8.71044 2.27722 9.61847 2.75925 10.4011C1.41475 16.6915 7.15737 22.3108 13.8407 21.1416C18.5652 23.5531 23.7858 18.7438 21.4049 14.1699ZM15.0462 17.9547C13.2913 18.6514 10.4033 18.6554 8.65588 17.7723C6.16419 16.4898 5.7213 13.6026 7.87083 13.6026C9.49088 13.6026 8.97806 15.4259 10.6139 16.1692C11.3649 16.5042 12.9791 16.5388 13.9173 15.9281C14.8439 15.3294 14.759 14.3876 14.2553 13.9376C12.9208 12.7484 9.1021 13.2209 7.35634 11.1388C6.59793 10.2356 6.45474 8.64214 7.38714 7.48661C9.01219 5.46805 13.7808 5.3451 15.8312 6.86947C17.7244 8.28375 17.2132 10.1609 15.6856 10.1609C13.8482 10.1609 14.8139 7.84018 11.8477 7.84018C9.69735 7.84018 8.85152 9.31633 10.3658 10.0347C12.4188 11.0191 17.6503 10.6904 17.6503 14.5371C17.6461 16.1378 16.6296 17.3311 15.0462 17.9547Z" fill="#276ED8"/>
</svg>
