<svg width="24" height="24" viewBox="0 0 24 24" fill="none" xmlns="http://www.w3.org/2000/svg">
<path d="M12.0025 2.73828H11.9975C6.48375 2.73828 2 7.06794 2 12.3919C2 14.5037 2.705 16.4609 3.90375 18.0502L2.6575 21.6365L6.50125 20.4503C8.0825 21.4615 9.96875 22.0456 12.0025 22.0456C17.5162 22.0456 22 17.7147 22 12.3919C22 7.06915 17.5162 2.73828 12.0025 2.73828ZM17.8212 16.3704C17.58 17.0281 16.6225 17.5735 15.8587 17.7328C15.3363 17.8402 14.6537 17.9259 12.3562 17.0064C9.4175 15.831 7.525 12.9482 7.3775 12.7612C7.23625 12.5741 6.19 11.2347 6.19 9.8494C6.19 8.4641 6.91875 7.78955 7.2125 7.49994C7.45375 7.26222 7.8525 7.15362 8.235 7.15362C8.35875 7.15362 8.47 7.15965 8.57 7.16448C8.86375 7.17655 9.01125 7.19344 9.205 7.64113C9.44625 8.20225 10.0337 9.58755 10.1038 9.72994C10.175 9.87233 10.2463 10.0654 10.1462 10.2524C10.0525 10.4455 9.97 10.5312 9.8225 10.6953C9.675 10.8594 9.535 10.9849 9.3875 11.1611C9.2525 11.3143 9.1 11.4785 9.27 11.762C9.44 12.0396 10.0275 12.9651 10.8925 13.7084C12.0087 14.6678 12.9137 14.9743 13.2375 15.1046C13.4787 15.2011 13.7662 15.1782 13.9425 14.9972C14.1663 14.7643 14.4425 14.3782 14.7238 13.9981C14.9237 13.7253 15.1763 13.6916 15.4412 13.7881C15.7113 13.8786 17.14 14.5604 17.4338 14.7016C17.7275 14.844 17.9212 14.9115 17.9925 15.031C18.0625 15.1505 18.0625 15.7116 17.8212 16.3704Z" fill="#276ED8"/>
</svg>
