<svg width="1965" height="635" viewBox="0 0 1965 635" fill="none" xmlns="http://www.w3.org/2000/svg">
<mask id="mask0_93_515" style="mask-type:alpha" maskUnits="userSpaceOnUse" x="0" y="0" width="1965" height="635">
<rect width="1965" height="635" fill="#C4C4C4"/>
</mask>
<g mask="url(#mask0_93_515)">
<path d="M303.733 71.9751C99.1804 51.8805 -205.124 -26 -205.124 -26L-238.256 615.365C-238.256 615.365 293.805 512.505 645.966 512.654C911.033 512.767 1081.13 528.28 1344.89 548.874C1650.12 572.705 2103.11 624.377 2103.11 624.377L2126.87 164.389C2126.87 164.389 1625.5 69.637 1286.17 46.4251C899.457 19.9722 688.504 109.774 303.733 71.9751Z" fill="#276ED8" fill-opacity="0.1"/>
<path d="M228.535 114.697C32.9541 103.696 -260.362 47 -260.362 47V587C-260.362 587 240.741 485.233 575.764 475.222C827.932 467.686 990.507 475.828 1242.44 485.544C1533.98 496.786 1967.46 527.175 1967.46 527.175V139.886C1967.46 139.886 1485.84 74.6828 1161.89 64.9421C792.701 53.8413 596.432 135.389 228.535 114.697Z" fill="#276ED8"/>
</g>
</svg>
